<svg xmlns="http://www.w3.org/2000/svg" width="24" height="24" fill="none">
<path fill="#e1e5ea" fill-rule="evenodd" d="M12 2c.399 0 .722.323.722.722v1.03a.722.722 0 1 1-1.444 0v-1.03c0-.399.323-.722.722-.722ZM4.929 4.929a.722.722 0 0 1 1.02 0l.73.729a.722.722 0 1 1-1.021 1.02l-.73-.729a.722.722 0 0 1 0-1.02Zm14.142 0a.722.722 0 0 1 0 1.02l-.729.73a.722.722 0 1 1-1.02-1.021l.729-.73a.722.722 0 0 1 1.02 0ZM12 8.598a3.402 3.402 0 1 0 0 6.804 3.402 3.402 0 0 0 0-6.804Zm-3.426-.024a4.845 4.845 0 1 1 6.852 6.852 4.845 4.845 0 0 1-6.852-6.852ZM2 12c0-.399.323-.722.722-.722h1.03a.722.722 0 0 1 0 1.444h-1.03A.722.722 0 0 1 2 12Zm17.526 0c0-.399.323-.722.721-.722h1.031a.722.722 0 0 1 0 1.444h-1.03a.722.722 0 0 1-.722-.722Zm-2.204 5.322a.722.722 0 0 1 1.02 0l.73.729a.722.722 0 0 1-1.021 1.02l-.73-.729a.722.722 0 0 1 0-1.02Zm-10.644 0a.722.722 0 0 1 0 1.02l-.729.73a.722.722 0 0 1-1.02-1.021l.729-.73a.722.722 0 0 1 1.02 0ZM12 19.526c.399 0 .722.323.722.721v1.031a.722.722 0 1 1-1.444 0v-1.03c0-.4.323-.722.722-.722Z" clip-rule="evenodd"/></svg>