<svg xmlns="http://www.w3.org/2000/svg" width="17" height="15" fill="none">
    <path fill="white" fill-rule="evenodd" d="M7 1S4 5.5 4 6v8c0 .5 0 .75.125.875S4.5 15 5 15h9c1.553 0 1.728-.59 1.922-1.248A7.68 7.68 0 0 1 16 13.5c.875-3.25 1-5.75 1-7.5 0-2-1.375-2-2-2h-4V3s0-3-3-3c-.5 0-1 1-1 1Zm2.7 2.01c0-.007 0-.023-.003-.046a2.39 2.39 0 0 0-.235-.882 1.336 1.336 0 0 0-.449-.532 1.537 1.537 0 0 0-.688-.232 2.464 2.464 0 0 0-.157.253l-.007.014-.034.069-.045.067-.033.049-.094.141A129.526 129.526 0 0 0 6.6 4.008a46.694 46.694 0 0 0-1.002 1.646 9.397 9.397 0 0 0-.297.553V13.7H14c.338 0 .514-.035.594-.059l.01-.026c.018-.051.036-.111.064-.204l.008-.028c.02-.071.047-.161.078-.255.829-3.093.946-5.462.946-7.128 0-.355-.061-.522-.09-.581-.02-.042-.032-.048-.037-.05h-.001a.52.52 0 0 0-.181-.051A2.74 2.74 0 0 0 15 5.3H9.7V3.01Zm4.95 10.608-.013.008a.045.045 0 0 1 .013-.008Z" clip-rule="evenodd"></path>
    <path fill="white" fill-rule="evenodd" d="M1.3 7.3v6.4H4V7.3H1.3ZM1 6a1 1 0 0 0-1 1v7a1 1 0 0 0 1 1h4.3V6H1Z" clip-rule="evenodd"></path>
</svg>